<?xml version="1.0" encoding="utf-8"?>
<!-- Generator: Adobe Illustrator 23.0.3, SVG Export Plug-In . SVG Version: 6.00 Build 0)  -->
<svg version="1.1" id="Art_copy" xmlns="http://www.w3.org/2000/svg" xmlns:xlink="http://www.w3.org/1999/xlink" x="0px" y="0px"
	 viewBox="0 0 494.19 170.38" style="enable-background:new 0 0 494.19 170.38;" xml:space="preserve">
<style type="text/css">
	.st0{fill:#FFFFFF;}
</style>
<path class="st0" d="M351.31,52.31c-5.66-0.06-10.18-3.11-10.8-7.84c-0.63-4.79,3.77-7.73,9.37-7.73c2.75,0,6.35,0.57,8.72,1.52
	l-1.97-12.58c-2.43-0.57-5.94-1.09-9.3-1.09c-13.67,0-24.04,7.05-22.66,19.89c1.41,12.93,12.6,21.05,28.55,21.06
	c3.42,0,6.59-0.54,9.43-1.52l-2.17-13.84C358.58,51.48,354.95,52.35,351.31,52.31z"/>
<polygon class="st0" points="147.21,25.61 141.64,64.53 170.7,64.53 171.78,54.1 157.58,54.1 158.17,49.31 172.28,49.31 173.3,39.4 
	159.39,39.4 159.91,35.18 173.74,35.18 174.73,25.61 "/>
<polygon class="st0" points="304.87,25.61 319.9,25.61 323.96,64.53 308.09,64.53 "/>
<path class="st0" d="M119.95,34.87L145.01,0c-16.65,13.07-32.59,24.77-47.83,35.12l17.63-5.86L0,170.38l85.56-66.62l-23.05,9.9
	l48.58-66.26l2.95,8.51l9.32-8.26l-12.11,35.61L136,65.43l6.95-46.16l-21.73,19.62L119.95,34.87z"/>
<polygon class="st0" points="259.71,25.61 245.83,25.61 245.76,64.53 273.88,64.53 273.51,54.2 260.23,54.2 "/>
<path class="st0" d="M218.54,25.51l-0.36,0.85l-16.21,38.17h14.47l1.98-5.66h8.7l1.17,5.66h14.81l-10.63-39.02H218.54z
	 M221.76,49.27l2.3-6.68l1.41,6.68H221.76z"/>
<polygon class="st0" points="212.79,25.61 178.32,25.61 177.38,35.18 185.33,35.18 182.77,64.53 197.43,64.53 199.41,35.18 
	208.58,35.18 "/>
<polygon class="st0" points="289.15,25.61 275.27,25.61 276.84,64.53 304.96,64.53 304.15,54.2 290.87,54.2 "/>
<path class="st0" d="M378.11,26.27l18.96,5.46C377.31,20.11,360.83,9.53,347.64,0L360,17.63l7.84,47.94l21.91,18.99l-9.16-28.19
	l16.78,10.24l34.29,47.05l-23.04-9.9l85.57,66.62L378.11,26.27z M376.54,43.79l-3.29-10.14l9.9,13.52L376.54,43.79z"/>
</svg>
